<svg xmlns="http://www.w3.org/2000/svg" viewBox="0 0 512 512">
<defs>
  <linearGradient id="bg" x1="0" y1="0" x2="1" y2="1"><stop offset="0" stop-color="#07112f"/><stop offset=".55" stop-color="#0b0b24"/><stop offset="1" stop-color="#18072b"/></linearGradient>
  <linearGradient id="a1" x1="0" y1="1" x2="1" y2="0"><stop stop-color="#19d7ff"/><stop offset=".55" stop-color="#2477ff"/><stop offset="1" stop-color="#c43dff"/></linearGradient>
  <linearGradient id="a2" x1="0" y1="0" x2="1" y2="1"><stop stop-color="#5ee8ff"/><stop offset=".5" stop-color="#6d63ff"/><stop offset="1" stop-color="#f13bff"/></linearGradient>
  <filter id="glow"><feGaussianBlur stdDeviation="10" result="b"/><feMerge><feMergeNode in="b"/><feMergeNode in="SourceGraphic"/></feMerge></filter>
</defs>
<rect x="8" y="8" width="496" height="496" rx="112" fill="url(#bg)"/>
<rect x="18" y="18" width="476" height="476" rx="104" fill="none" stroke="url(#a1)" stroke-width="10" opacity=".9"/>
<path d="M112 362 226 116c7-15 28-15 36 0l93 202h-72l-45-100-57 144z" fill="url(#a1)" filter="url(#glow)"/>
<path d="M239 246h91c24 0 44 13 55 35l32 81h-70l-25-57h-83z" fill="url(#a2)"/>
<path d="m366 126 7 22 22 7-22 7-7 22-7-22-22-7 22-7z" fill="#d85cff"/>
<path d="m414 170 5 16 16 5-16 5-5 16-5-16-16-5 16-5z" fill="#5ee8ff"/>
</svg>